<svg width="731" height="167" viewBox="0 0 731 167" fill="none" xmlns="http://www.w3.org/2000/svg">
<path d="M80.4158 94.7859C83.3637 96.9535 93.4777 102.627 95.4445 102.627C89.0591 104.587 85.1318 107.064 81.8898 107.064C78.6494 107.064 69.5132 108.092 67.4526 107.064C71.5754 104.691 80.4158 94.7859 80.4158 94.7859ZM124.812 48.7757C126.383 50.2202 126.383 54.7593 129.526 51.2523C131.883 50.6327 133.064 48.9828 133.846 48.7757C136.794 49.1882 136.993 47.3311 136.993 46.2991C136.993 45.267 137.974 44.442 138.759 44.442C139.545 44.442 140.33 41.9671 140.721 40.1084C141.116 38.2513 140.92 30.2036 135.811 28.3482C130.703 26.4912 125.988 27.9358 124.812 31.4428C123.632 34.9498 122.847 38.8709 121.864 38.0459C120.883 37.2193 119.899 37.6318 119.899 35.9835C119.899 34.3319 116.364 29.4054 113.024 27.535C109.88 21.9521 105.953 20.3022 104.577 18.8576C103.205 17.4131 100.649 13.699 99.0777 13.4919C97.5068 13.2865 99.2732 11.842 97.7023 11.6366C96.133 11.4295 75.3088 11.017 69.6118 11.6366C63.9148 12.2561 58.3037 11.0871 56.4514 12.2561C55.4688 12.8757 55.6643 13.4936 54.6833 13.7007C53.7007 13.9061 51.9326 15.7631 52.0312 16.8987C50.2647 17.3112 48.4966 19.0647 49.1835 19.4772C49.8719 19.8897 53.5051 18.1362 54.5863 18.5487C55.6659 18.9612 50.853 21.4361 50.4602 22.0557C50.0675 22.6753 50.756 23.4986 52.0312 23.0877C53.3079 22.6753 57.0413 20.0951 59.3006 20.6128C61.56 21.1288 60.9701 21.3359 61.2659 22.3663C61.56 23.3984 58.8093 24.6358 58.9079 26.5964C59.0065 28.557 59.9891 28.7624 60.5774 27.5249C61.1673 26.2858 62.4441 24.4288 64.0166 24.2217C65.5875 24.0146 65.8212 20.1168 67.5527 18.7541C68.7309 17.8256 75.9002 18.4451 79.1438 19.1683C82.3843 19.8897 92.2057 19.2718 94.0724 20.8182C95.939 22.3646 94.9564 26.0787 97.9043 28.5553C100.849 31.0303 103.895 35.3639 104.385 36.1889C101.537 38.5603 95.3475 44.1331 93.7766 46.7116C92.2057 49.29 87 57.0288 86.3132 57.5449C86.3132 59.1948 83.7596 61.3625 81.893 62.0839C80.0279 62.807 77.7685 64.8695 76.6873 65.6961C75.1148 65.6961 75.0194 66.0051 74.4295 66.7282C73.3483 67.1407 72.1701 68.7906 71.6788 69.6156C72.4659 70.0281 72.4659 69.7192 71.7774 70.4406C71.0889 71.162 67.5543 76.4242 66.5717 81.3758C63.9196 84.9863 60.9892 87.8587 59.7935 89.1145C55.8647 93.2411 52.4271 103.969 51.2489 105.208C50.0691 106.447 40.4432 111.915 37.9883 115.113C35.5333 118.311 35.9261 119.858 35.4347 120.374C34.9434 120.89 21.8816 135.435 20.5062 134.816C19.1309 134.196 12.6485 132.959 11.5673 133.268C10.9774 136.364 9.89776 141.521 10.0949 143.378C10.2921 145.235 9.30787 148.433 8.81815 151.011C8.32684 153.592 7.93411 159.988 10.4876 161.639C13.0396 163.288 13.8266 155.447 14.2194 155.136C14.6121 154.827 19.425 149.465 20.2105 147.606C20.996 145.748 24.5321 142.346 26.3988 140.282C28.2638 138.219 46.3358 122.227 49.6764 120.577C53.0154 118.926 56.1588 117.272 57.7297 116.037C58.4166 120.886 61.5616 134.091 65.6861 134.711C69.8105 135.328 68.0425 132.234 68.0425 130.17C68.0425 128.106 67.4526 126.249 68.4352 125.217C69.4162 124.186 68.5338 122.227 69.2207 120.783C69.9091 119.338 72.6582 117.79 72.4627 117.272C72.2655 116.758 70.7932 116.449 72.6582 116.242C74.5249 116.037 93.4809 115.931 99.0793 116.242C104.678 116.553 106.15 115.006 108.902 115.212C111.651 115.417 112.144 113.871 113.225 113.664C114.307 113.456 117.35 110.465 115.679 105.205C114.011 99.9445 102.913 84.8811 98.7851 82.1991C98.4894 77.8654 97.9997 79.31 98.8837 78.5869C99.7677 77.8637 105.465 75.3888 107.626 73.0157C109.786 70.6427 111.849 71.0552 114.011 69.3017C116.169 67.5482 119.511 63.7322 120.592 63.5251C121.673 63.3181 129.825 74.7709 133.849 76.1119C137.877 77.4529 136.293 81.2138 142.986 80.651C145.439 80.4439 146.864 70.5725 147.404 67.4463C147.795 65.1768 148.779 56.4076 148.975 55.0649C149.171 53.7222 150.646 50.0098 150.546 49.3919C150.449 48.7723 150.055 47.2259 150.155 45.4708C150.252 43.7189 150.451 38.7657 150.155 38.4551C149.859 38.1461 148.388 37.7336 148.584 39.2817C148.779 40.8298 148.681 42.3779 148.584 43.0994C147.894 43.2029 147.503 39.3335 147.6 38.1996C147.698 37.064 146.518 33.4017 146.423 38.3532C146.261 46.5028 146.127 42.2744 146.127 42.5833C145.437 42.7904 145.437 40.3138 145.437 39.2817C145.437 38.2497 145.733 35.4641 145.145 35.1552C144.555 34.8445 143.378 34.9481 143.474 37.0105C143.572 39.0747 143.965 41.1388 143.965 41.7567V43.0977C143.378 43.4066 142.788 39.1765 142.788 38.6605C142.788 38.1445 141.019 33.1929 141.313 38.6605C141.609 44.1281 141.804 42.5817 142.098 43.3031C142.394 44.0262 142.394 46.1905 142.197 46.9136C141.216 45.5726 141.706 44.4387 141.017 44.1297C140.33 43.8191 138.661 43.6137 139.349 46.2957C140.036 48.9778 142.392 51.1454 143.083 52.1758C143.769 53.2062 143.574 57.2309 142.984 59.1915C142.394 61.1504 139.84 66.3107 139.351 68.3731C138.171 66.2088 133.948 63.6287 132.18 62.8037C130.41 61.9787 132.867 57.8521 126.777 53.0025C120.684 48.1561 124.812 48.7757 124.812 48.7757Z" fill="white"/>
<g filter="url(#filter0_d_9_2)">
<path d="M183.136 93L194.727 23.1818H224.864C230.045 23.1818 234.42 24.125 237.989 26.0114C241.557 27.8977 244.125 30.6136 245.693 34.1591C247.261 37.7045 247.636 41.9545 246.818 46.9091C246 51.9091 244.193 56.125 241.398 59.5568C238.625 62.9659 235.091 65.5568 230.795 67.3295C226.523 69.0795 221.727 69.9545 216.409 69.9545H198.409L200.864 55.2273H215.045C217.273 55.2273 219.227 54.9545 220.909 54.4091C222.591 53.8409 223.955 52.9545 225 51.75C226.045 50.5227 226.727 48.9091 227.045 46.9091C227.364 44.9091 227.205 43.2841 226.568 42.0341C225.932 40.7614 224.875 39.8295 223.398 39.2386C221.92 38.625 220.091 38.3182 217.909 38.3182H211.227L202.091 93H183.136ZM229.364 60.9545L241.5 93H220.909L209.182 60.9545H229.364ZM301.108 23.1818H320.062L312.631 67.9091C311.767 73.2273 309.744 77.8295 306.562 81.7159C303.403 85.5795 299.381 88.5682 294.494 90.6818C289.608 92.7727 284.176 93.8182 278.199 93.8182C272.176 93.8182 267.085 92.7727 262.926 90.6818C258.767 88.5682 255.744 85.5795 253.858 81.7159C251.994 77.8295 251.494 73.2273 252.358 67.9091L259.79 23.1818H278.744L271.585 66.2727C271.244 68.4318 271.415 70.3523 272.097 72.0341C272.778 73.7159 273.881 75.0455 275.403 76.0227C276.926 76.9773 278.767 77.4545 280.926 77.4545C283.108 77.4545 285.119 76.9773 286.96 76.0227C288.824 75.0455 290.369 73.7159 291.597 72.0341C292.824 70.3523 293.608 68.4318 293.949 66.2727L301.108 23.1818ZM389.48 23.1818L377.889 93H362.071L342.98 56.3182H342.571L336.435 93H317.48L329.071 23.1818H345.162L363.98 59.7273H364.526L370.526 23.1818H389.48ZM405.98 93L417.571 23.1818H447.707C452.889 23.1818 457.264 24.125 460.832 26.0114C464.401 27.8977 466.969 30.6136 468.537 34.1591C470.105 37.7045 470.48 41.9545 469.662 46.9091C468.844 51.9091 467.037 56.125 464.241 59.5568C461.469 62.9659 457.935 65.5568 453.639 67.3295C449.366 69.0795 444.571 69.9545 439.253 69.9545H421.253L423.707 55.2273H437.889C440.116 55.2273 442.071 54.9545 443.753 54.4091C445.435 53.8409 446.798 52.9545 447.844 51.75C448.889 50.5227 449.571 48.9091 449.889 46.9091C450.207 44.9091 450.048 43.2841 449.412 42.0341C448.776 40.7614 447.719 39.8295 446.241 39.2386C444.764 38.625 442.935 38.3182 440.753 38.3182H434.071L424.935 93H405.98ZM452.207 60.9545L464.344 93H443.753L432.026 60.9545H452.207ZM489.179 93H468.724L503.361 23.1818H529.27L540.724 93H520.27L513.452 42.4091H512.906L489.179 93ZM489.997 65.4545H528.452L525.997 79.6364H487.543L489.997 65.4545ZM545.727 38.4545L548.318 23.1818H609L606.409 38.4545H585.409L576.409 93H557.727L566.727 38.4545H545.727ZM604.543 93L616.134 23.1818H666.452L663.861 38.4545H632.497L630.588 50.4545H659.361L656.77 65.7273H627.997L626.088 77.7273H657.315L654.724 93H604.543Z" fill="white"/>
</g>
<defs>
<filter id="filter0_d_9_2" x="179.136" y="23.1818" width="491.315" height="78.6364" filterUnits="userSpaceOnUse" color-interpolation-filters="sRGB">
<feFlood flood-opacity="0" result="BackgroundImageFix"/>
<feColorMatrix in="SourceAlpha" type="matrix" values="0 0 0 0 0 0 0 0 0 0 0 0 0 0 0 0 0 0 127 0" result="hardAlpha"/>
<feOffset dy="4"/>
<feGaussianBlur stdDeviation="2"/>
<feComposite in2="hardAlpha" operator="out"/>
<feColorMatrix type="matrix" values="0 0 0 0 0 0 0 0 0 0 0 0 0 0 0 0 0 0 0.25 0"/>
<feBlend mode="normal" in2="BackgroundImageFix" result="effect1_dropShadow_9_2"/>
<feBlend mode="normal" in="SourceGraphic" in2="effect1_dropShadow_9_2" result="shape"/>
</filter>
</defs>
</svg>
